<svg width="625" height="98" viewBox="0 0 625 98" fill="none" xmlns="http://www.w3.org/2000/svg">
<path d="M92.69 41.99C97.1966 40.17 101.573 37.96 105.82 35.36C110.153 32.6733 114.14 29.7266 117.78 26.52C118.56 25.9133 119.513 25.0466 120.64 23.92C121.853 22.7933 122.893 21.6233 123.76 20.41C124.713 19.11 125.363 17.81 125.71 16.51C126.143 15.1233 125.97 13.8666 125.19 12.74H125.32C124.193 11.18 122.59 10.0966 120.51 9.48996C118.517 8.79662 116.35 8.40662 114.01 8.31996C111.757 8.14663 109.46 8.14663 107.12 8.31996C104.867 8.49329 102.96 8.62329 101.4 8.70996C94.64 9.31662 87.9233 10.4 81.25 11.96C74.6633 13.52 68.12 15.3833 61.62 17.55C55.38 19.63 49.27 22.0133 43.29 24.7C37.31 27.3 31.5466 30.3333 26 33.8C24.2666 34.84 22.1866 36.2266 19.76 37.96C17.42 39.6066 15.21 41.47 13.13 43.55C11.05 45.5433 9.44662 47.71 8.31996 50.05C7.19329 52.3033 7.06329 54.6433 7.92996 57.07C8.36329 57.9366 9.05662 58.63 10.01 59.15C10.9633 59.5833 12.0033 59.93 13.13 60.19C14.2566 60.3633 15.3833 60.4933 16.51 60.58C17.7233 60.6666 18.72 60.71 19.5 60.71C26.1733 60.8833 33.02 60.32 40.04 59.02C47.06 57.72 53.6033 55.7266 59.67 53.04C60.3633 52.78 61.1866 52.5633 62.14 52.39C63.0933 52.2166 63.96 52.26 64.74 52.52C65.52 52.6933 66.0833 53.0833 66.43 53.69C66.8633 54.2966 66.9066 55.2066 66.56 56.42C66.2133 57.6333 65.3466 58.7166 63.96 59.67C62.66 60.5366 61.5333 61.3166 60.58 62.01C59.1066 63.05 57.6766 64.1333 56.29 65.26C54.99 66.3 53.6466 67.3833 52.26 68.51C51.9133 68.8566 51.09 69.5066 49.79 70.46C48.5766 71.5 47.19 72.7133 45.63 74.1C44.1566 75.4866 42.64 76.96 41.08 78.52C39.6066 80.1666 38.3933 81.6833 37.44 83.07C36.4866 84.5433 35.9233 85.8 35.75 86.84C35.6633 87.9666 36.27 88.7466 37.57 89.18C39.39 89.8733 41.2966 90.1766 43.29 90.09C45.2833 90.0033 47.32 89.7 49.4 89.18C51.48 88.7466 53.4733 88.14 55.38 87.36C57.3733 86.6666 59.2366 85.9733 60.97 85.28C68.1633 82.5066 75.1833 79.3866 82.03 75.92C88.9633 72.4533 95.94 69.2033 102.96 66.17C103.827 65.8233 105.257 65.2166 107.25 64.35C109.243 63.3966 111.497 62.4433 114.01 61.49C116.61 60.45 119.297 59.4966 122.07 58.63C124.843 57.7633 127.443 57.1566 129.87 56.81C132.297 56.3766 134.377 56.3333 136.11 56.68C137.843 57.0266 138.97 57.8933 139.49 59.28C140.01 60.84 139.793 62.01 138.84 62.79C137.887 63.4833 136.673 64.0033 135.2 64.35C133.727 64.6966 132.21 64.9133 130.65 65C129.09 65 127.92 65.0866 127.14 65.26C123.327 66.2133 119.643 67.3833 116.09 68.77C112.537 70.1566 108.94 71.63 105.3 73.19C98.28 76.31 91.3466 79.56 84.5 82.94C77.74 86.32 70.7633 89.3966 63.57 92.17C61.49 92.95 59.2366 93.7733 56.81 94.64C54.47 95.5066 52.0433 96.1566 49.53 96.59C47.1033 97.11 44.6333 97.37 42.12 97.37C39.6933 97.37 37.3533 96.9366 35.1 96.07C31.3733 94.5966 29.2066 92.69 28.6 90.35C27.9933 88.01 28.3833 85.41 29.77 82.55C31.1566 79.7766 33.2366 76.8733 36.01 73.84C38.87 70.8933 41.86 68.0766 44.98 65.39C37.6133 66.95 30.4633 67.8166 23.53 67.99C21.71 67.99 19.7166 67.99 17.55 67.99C15.3833 67.9033 13.2166 67.6 11.05 67.08C8.96996 66.56 7.06329 65.78 5.32996 64.74C3.59662 63.7 2.29662 62.1833 1.42996 60.19C0.476623 58.1966 0.0432895 56.2033 0.129956 54.21C0.303289 52.13 0.779956 50.1366 1.55996 48.23C2.42662 46.2366 3.46662 44.4166 4.67996 42.77C5.97996 41.0366 7.32329 39.4766 8.70996 38.09C11.3966 35.49 14.2566 33.15 17.29 31.07C20.41 28.9033 23.6166 26.91 26.91 25.09C30.2033 23.27 33.5833 21.6233 37.05 20.15C40.5166 18.59 43.94 17.1166 47.32 15.73C54.5133 12.87 61.75 10.3566 69.03 8.18996C76.3966 6.02329 83.8933 4.28996 91.52 2.98995C94.38 2.55662 97.5 2.12329 100.88 1.68996C104.26 1.16996 107.64 0.909958 111.02 0.909958C114.487 0.909958 117.78 1.29996 120.9 2.07996C124.107 2.85996 126.88 4.28996 129.22 6.36996C131.733 8.53662 133.12 10.8333 133.38 13.26C133.64 15.6866 133.163 18.1566 131.95 20.67C130.823 23.0966 129.133 25.48 126.88 27.82C124.627 30.16 122.2 32.37 119.6 34.45C117.087 36.4433 114.573 38.2633 112.06 39.91C109.633 41.47 107.64 42.6833 106.08 43.55C104.607 44.4166 102.873 45.4133 100.88 46.54C98.9733 47.6666 97.1533 48.4033 95.42 48.75C94.38 49.1833 93.4266 49.1833 92.56 48.75C91.78 48.23 91.2166 47.58 90.87 46.8C90.5233 45.9333 90.48 45.0233 90.74 44.07C91 43.1166 91.65 42.4233 92.69 41.99ZM151.025 72.8C149.812 72.8 148.772 72.3666 147.905 71.5C147.125 70.6333 146.649 69.7233 146.475 68.77C146.302 67.73 146.432 66.82 146.865 66.04C147.385 65.1733 148.382 64.74 149.855 64.74C151.069 64.74 152.065 65.1733 152.845 66.04C153.712 66.82 154.232 67.73 154.405 68.77C154.579 69.81 154.405 70.72 153.885 71.5C153.365 72.3666 152.412 72.8 151.025 72.8ZM213.992 67.73C211.999 62.8766 209.745 58.1966 207.232 53.69C204.805 49.1833 201.945 44.98 198.652 41.08C197.612 39.9533 196.485 38.8266 195.272 37.7C194.059 36.5733 192.759 35.5766 191.372 34.71C190.072 33.7566 188.642 33.0633 187.082 32.63C185.522 32.11 183.919 31.8933 182.272 31.98C181.492 31.8066 180.755 31.6333 180.062 31.46C179.455 31.2 178.979 30.5933 178.632 29.64C178.285 28.6 178.285 27.7766 178.632 27.17C178.979 26.4766 179.455 25.9133 180.062 25.48C180.755 25.0466 181.535 24.7433 182.402 24.57C183.269 24.31 184.049 24.0933 184.742 23.92C189.422 22.7066 194.102 21.6233 198.782 20.67C203.462 19.63 208.142 18.6333 212.822 17.68C228.249 14.56 243.632 11.7866 258.972 9.35996C274.399 6.93329 289.912 4.89662 305.512 3.24996C314.179 2.29663 322.802 1.51663 331.382 0.909958C339.962 0.303288 348.585 0.346621 357.252 1.03996C358.032 1.03996 358.855 1.12662 359.722 1.29996C360.675 1.38663 361.499 1.64663 362.192 2.07996C362.972 2.42663 363.535 2.94663 363.882 3.63996C364.229 4.24663 364.142 5.11329 363.622 6.23996C363.275 7.01996 362.799 7.58329 362.192 7.92996C361.585 8.18996 360.892 8.36329 360.112 8.44996C359.419 8.53663 358.682 8.53663 357.902 8.44996C357.122 8.27662 356.429 8.18996 355.822 8.18996C351.229 7.92996 346.679 7.84329 342.172 7.92996C337.665 8.01662 333.115 8.23329 328.522 8.57996C316.042 9.44663 303.649 10.66 291.342 12.22C279.122 13.78 266.815 15.5566 254.422 17.55C244.455 19.11 234.489 20.7566 224.522 22.49C214.642 24.2233 204.805 26.3033 195.012 28.73C197.092 30.03 199.042 31.6333 200.862 33.54C202.682 35.36 204.372 37.3533 205.932 39.52C207.492 41.6 208.922 43.7233 210.222 45.89C211.522 48.0566 212.735 50.1366 213.862 52.13C216.375 56.81 218.715 61.7066 220.882 66.82C223.395 66.56 225.909 66.3 228.422 66.04C230.935 65.6933 233.449 65.3466 235.962 65L244.542 52L258.322 31.46L261.442 26.78C262.049 25.74 262.872 25.1766 263.912 25.09C264.952 24.9166 265.862 25.09 266.642 25.61C267.422 26.0433 267.942 26.6933 268.202 27.56C268.549 28.4266 268.375 29.38 267.682 30.42L245.452 63.96L265.602 61.62C271.582 60.9266 277.519 60.32 283.412 59.8C289.392 59.1933 295.372 58.5866 301.352 57.98C306.292 57.46 311.319 57.07 316.432 56.81C317.385 56.81 318.295 57.07 319.162 57.59C320.115 58.11 320.809 58.76 321.242 59.54C321.675 60.32 321.762 61.1 321.502 61.88C321.242 62.66 320.462 63.31 319.162 63.83C317.862 64.2633 316.389 64.4366 314.742 64.35C313.182 64.2633 311.752 64.3066 310.452 64.48C307.245 64.6533 304.039 64.9133 300.832 65.26C297.712 65.52 294.549 65.78 291.342 66.04C284.495 66.7333 277.692 67.4266 270.932 68.12C264.172 68.8133 257.412 69.55 250.652 70.33L240.382 71.37L228.292 89.57C226.819 91.7366 225.475 92.4733 224.262 91.78C223.135 91.1733 222.139 89.96 221.272 88.14C220.405 86.4066 219.669 84.5 219.062 82.42C218.542 80.34 218.152 78.9533 217.892 78.26L216.462 73.97L213.862 74.36L203.072 75.53C202.032 75.7033 201.165 75.4433 200.472 74.75C199.779 74.1433 199.345 73.45 199.172 72.67C199.085 71.89 199.259 71.1533 199.692 70.46C200.125 69.68 200.905 69.2033 202.032 69.03L213.992 67.73ZM231.022 72.41L223.482 73.19C223.915 74.3166 224.305 75.4 224.652 76.44C225.085 77.5666 225.519 78.7366 225.952 79.95L231.022 72.41ZM317.999 57.2C319.733 57.2866 320.859 57.8066 321.379 58.76C321.899 59.7133 322.073 60.84 321.899 62.14C324.153 60.2333 326.016 58.0666 327.489 55.64C327.836 55.12 328.139 54.5566 328.399 53.95C328.746 53.3433 329.093 52.78 329.439 52.26C329.873 51.74 330.349 51.35 330.869 51.09C331.389 50.7433 332.039 50.6133 332.819 50.7C334.119 50.8733 334.943 51.4366 335.289 52.39C335.636 53.3433 335.809 54.34 335.809 55.38C336.243 56.2466 337.369 56.8533 339.189 57.2C341.009 57.46 343.003 57.6333 345.169 57.72C347.423 57.72 349.546 57.6766 351.539 57.59C353.533 57.4166 354.919 57.33 355.699 57.33C356.479 57.33 357.346 57.2866 358.299 57.2C359.339 57.0266 360.379 56.8966 361.419 56.81C362.459 56.7233 363.456 56.7666 364.409 56.94C365.363 57.0266 366.186 57.33 366.879 57.85C367.573 58.37 368.006 59.02 368.179 59.8C368.439 60.4933 368.439 61.1866 368.179 61.88C367.919 62.5733 367.486 63.18 366.879 63.7C366.359 64.1333 365.666 64.35 364.799 64.35C363.413 64.6966 361.896 64.8266 360.249 64.74C358.689 64.5666 357.216 64.5233 355.829 64.61C353.489 64.61 351.149 64.61 348.809 64.61C346.469 64.61 344.129 64.5233 341.789 64.35C340.143 64.1766 338.409 63.8733 336.589 63.44C334.769 63.0066 333.166 62.3133 331.779 61.36C330.826 62.4866 329.829 63.6133 328.789 64.74C327.749 65.78 326.709 66.7766 325.669 67.73C324.629 68.6833 323.546 69.6366 322.419 70.59C321.293 71.63 319.993 72.3233 318.519 72.67C316.699 73.19 315.139 72.8 313.839 71.5C313.233 70.8066 312.886 70.1133 312.799 69.42C312.713 68.64 312.799 67.86 313.059 67.08C313.233 66.3 313.493 65.52 313.839 64.74C314.099 63.96 314.359 63.2233 314.619 62.53C314.186 61.4033 314.273 60.2333 314.879 59.02C315.486 57.8066 316.526 57.2 317.999 57.2ZM382.643 57.07C383.076 57.2433 383.466 57.46 383.813 57.72C384.159 57.8933 384.463 58.11 384.723 58.37C386.456 58.1966 388.189 58.4566 389.923 59.15C391.656 60.1033 392.566 61.1433 392.653 62.27C392.739 63.31 392.436 64.4366 391.743 65.65C393.649 65.39 395.556 64.9566 397.463 64.35C399.456 63.7433 401.406 63.05 403.313 62.27C405.219 61.49 407.083 60.71 408.903 59.93C410.809 59.15 412.629 58.5 414.363 57.98C415.316 57.72 416.313 57.46 417.353 57.2C418.479 56.94 419.519 57.1566 420.473 57.85C421.253 58.4566 421.729 59.1066 421.903 59.8C422.076 60.4933 422.033 61.1866 421.773 61.88C421.513 62.4866 421.079 63.05 420.473 63.57C419.866 64.09 419.173 64.3933 418.393 64.48C415.619 64.9133 412.889 65.7366 410.203 66.95C407.516 68.0766 404.873 69.0733 402.273 69.94C401.059 70.3733 399.759 70.85 398.373 71.37C396.986 71.89 395.556 72.3233 394.083 72.67C392.609 73.0166 391.136 73.19 389.663 73.19C388.189 73.2766 386.803 73.1033 385.503 72.67C384.029 71.9766 383.076 71.11 382.643 70.07C382.296 68.9433 382.339 67.7733 382.773 66.56C381.039 66.82 379.306 67.21 377.573 67.73C375.319 68.4233 373.066 69.2033 370.813 70.07C368.646 70.9366 366.436 71.5866 364.183 72.02C362.709 72.28 361.193 72.28 359.633 72.02C358.073 71.76 356.903 70.8933 356.123 69.42C355.169 67.6 355.126 65.91 355.993 64.35C356.773 62.7033 358.029 61.3166 359.763 60.19C361.409 58.9766 363.229 58.0233 365.223 57.33C367.216 56.55 368.863 56.0733 370.163 55.9C372.329 55.64 374.453 55.64 376.533 55.9C378.613 56.0733 380.649 56.4633 382.643 57.07ZM365.483 64.74C366.349 64.5666 367.216 64.35 368.083 64.09C368.949 63.83 369.816 63.5266 370.683 63.18C368.603 63.44 366.869 63.96 365.483 64.74ZM418.543 57.2C419.236 57.2 419.886 57.33 420.493 57.59C421.186 57.7633 421.75 58.11 422.183 58.63C422.963 59.5833 423.31 60.4933 423.223 61.36C423.223 62.14 423.006 62.92 422.573 63.7C424.826 63.2666 427.08 62.7466 429.333 62.14C431.586 61.5333 433.84 60.9266 436.093 60.32C437.133 60.06 438.26 59.7566 439.473 59.41C440.686 59.0633 441.9 58.8033 443.113 58.63C444.413 58.4566 445.67 58.4133 446.883 58.5C448.183 58.5 449.353 58.76 450.393 59.28C451.866 59.9733 452.733 60.7966 452.993 61.75C453.253 62.7033 453.166 63.7 452.733 64.74C453.946 64.3933 455.16 64.09 456.373 63.83C457.586 63.4833 458.8 63.0933 460.013 62.66C462.353 61.9666 464.693 61.2733 467.033 60.58C469.46 59.8 471.886 59.0633 474.313 58.37C475.44 58.0233 476.74 57.6766 478.213 57.33C479.773 56.8966 481.116 57.07 482.243 57.85C482.936 58.37 483.37 59.02 483.543 59.8C483.716 60.4933 483.673 61.23 483.413 62.01C483.24 62.7033 482.85 63.31 482.243 63.83C481.636 64.2633 480.943 64.48 480.163 64.48C476.87 64.74 473.533 65.52 470.153 66.82C466.773 68.12 463.523 69.2466 460.403 70.2C459.45 70.46 458.323 70.8066 457.023 71.24C455.81 71.6733 454.553 72.0633 453.253 72.41C451.953 72.7566 450.653 72.9733 449.353 73.06C448.053 73.1466 446.883 72.9733 445.843 72.54C444.63 72.02 443.763 71.1533 443.243 69.94C442.81 68.64 442.766 67.34 443.113 66.04C441.206 66.2133 439.343 66.5166 437.523 66.95C435.703 67.3833 433.883 67.8166 432.063 68.25C430.85 68.5966 429.55 68.9866 428.163 69.42C426.863 69.8533 425.52 70.2866 424.133 70.72C422.833 71.1533 421.49 71.5 420.103 71.76C418.803 72.02 417.503 72.1066 416.203 72.02C415.423 71.9333 414.643 71.6733 413.863 71.24C412.823 70.5466 412.216 69.81 412.043 69.03C411.87 68.25 411.956 67.47 412.303 66.69C412.563 65.91 412.996 65.13 413.603 64.35C414.123 63.57 414.643 62.8333 415.163 62.14C414.816 61.0133 414.946 59.93 415.553 58.89C416.073 57.7633 417.07 57.2 418.543 57.2ZM484.916 63.05C484.916 63.05 484.7 63.1366 484.266 63.31C484.526 63.83 484.96 64.2633 485.566 64.61C486.26 64.9566 486.996 65.2166 487.776 65.39C488.643 65.4766 489.466 65.5633 490.246 65.65C491.113 65.65 491.806 65.65 492.326 65.65C495.013 65.5633 497.656 65.26 500.256 64.74C502.943 64.1333 505.543 63.4833 508.056 62.79C511.35 61.8366 514.73 60.71 518.196 59.41C521.75 58.11 525.26 57.3733 528.726 57.2C530.113 57.1133 531.11 57.4166 531.716 58.11C532.323 58.8033 532.583 59.6266 532.496 60.58C532.41 61.4466 532.02 62.27 531.326 63.05C530.633 63.83 529.68 64.3066 528.466 64.48C526.733 64.6533 525 65.0866 523.266 65.78C521.62 66.3866 519.973 66.95 518.326 67.47C515.726 68.3366 513.126 69.16 510.526 69.94C507.926 70.6333 505.326 71.24 502.726 71.76C500.733 72.1933 498.653 72.4966 496.486 72.67C494.406 72.93 492.326 72.9733 490.246 72.8C488.773 72.7133 487.04 72.28 485.046 71.5C483.14 70.72 481.493 69.7233 480.106 68.51C478.633 67.21 477.68 65.7366 477.246 64.09C476.813 62.4433 477.333 60.71 478.806 58.89C479.76 57.7633 480.973 56.94 482.446 56.42C483.92 55.9 485.393 55.8133 486.866 56.16C488.34 56.42 489.293 57.1133 489.726 58.24C490.246 59.28 490.333 60.2766 489.986 61.23C489.726 62.1833 489.163 62.92 488.296 63.44C487.43 63.96 486.346 63.83 485.046 63.05H484.916ZM562.399 32.89C562.399 33.8433 562.269 34.58 562.009 35.1C561.749 35.62 561.359 36.01 560.839 36.27C560.319 36.4433 559.713 36.4866 559.019 36.4C558.326 36.3133 557.633 36.1833 556.939 36.01C556.939 37.6566 556.333 39.0866 555.119 40.3C554.253 41.1666 552.909 41.86 551.089 42.38C549.356 42.9 547.449 43.2033 545.369 43.29C543.289 43.3766 541.209 43.29 539.129 43.03C537.049 42.6833 535.229 42.12 533.669 41.34C532.109 40.56 530.983 39.52 530.289 38.22C529.596 36.92 529.639 35.3166 530.419 33.41C531.026 31.7633 532.023 30.5066 533.409 29.64C534.883 28.6866 536.486 27.9933 538.219 27.56C540.039 27.1266 541.859 26.8666 543.679 26.78C545.586 26.6933 547.276 26.6933 548.749 26.78C549.616 26.78 550.786 26.8666 552.259 27.04C553.819 27.2133 555.336 27.5166 556.809 27.95C558.283 28.3833 559.539 28.99 560.579 29.77C561.706 30.55 562.313 31.59 562.399 32.89ZM529.119 57.2C530.246 57.2866 531.113 57.59 531.719 58.11C532.326 58.5433 532.716 59.15 532.889 59.93C533.149 60.6233 533.236 61.4033 533.149 62.27C533.063 63.1366 532.933 64.0033 532.759 64.87C533.539 64.6966 534.276 64.61 534.969 64.61C535.749 64.5233 536.399 64.3933 536.919 64.22C539.086 63.7 541.296 63.05 543.549 62.27C546.409 61.3166 549.269 60.4066 552.129 59.54C555.076 58.5866 558.066 57.8933 561.099 57.46C561.966 57.3733 562.876 57.46 563.829 57.72C564.869 57.98 565.693 58.4133 566.299 59.02C566.993 59.6266 567.339 60.3633 567.339 61.23C567.426 62.01 566.906 62.8333 565.779 63.7C565.173 64.1333 564.523 64.35 563.829 64.35C563.223 64.35 562.573 64.3933 561.879 64.48C560.579 64.6533 559.279 64.87 557.979 65.13C556.679 65.39 555.423 65.6933 554.209 66.04C551.609 66.7333 549.009 67.47 546.409 68.25C543.896 69.03 541.383 69.8533 538.869 70.72C537.396 71.24 535.663 71.8033 533.669 72.41C531.763 73.1033 529.986 73.19 528.339 72.67C527.299 72.2366 526.563 71.63 526.129 70.85C525.609 70.1566 525.306 69.3766 525.219 68.51C525.046 67.5566 525.046 66.6033 525.219 65.65C525.393 64.6966 525.609 63.7866 525.869 62.92C525.523 62.4 525.349 61.7933 525.349 61.1C525.349 60.4066 525.479 59.8 525.739 59.28C525.999 58.6733 526.433 58.1966 527.039 57.85C527.559 57.4166 528.253 57.2 529.119 57.2ZM552.259 36.66C552.606 35.7066 552.389 34.8833 551.609 34.19C551.436 34.1033 551.306 34.06 551.219 34.06C551.133 34.06 551.046 34.0166 550.959 33.93C550.006 33.7566 548.793 33.5833 547.319 33.41C545.933 33.15 544.459 33.02 542.899 33.02C541.426 33.02 540.039 33.2366 538.739 33.67C537.439 34.0166 536.486 34.6233 535.879 35.49C535.879 35.5766 535.836 35.6633 535.749 35.75C535.923 36.4433 536.529 37.0066 537.569 37.44C538.696 37.7866 539.909 38.0466 541.209 38.22C542.509 38.3933 543.766 38.48 544.979 38.48C546.193 38.48 547.016 38.48 547.449 38.48C548.316 38.3066 549.139 38.1333 549.919 37.96C550.786 37.7 551.566 37.2666 552.259 36.66ZM560.939 63.31C559.899 62.27 559.379 61.2733 559.379 60.32C559.379 59.3666 559.682 58.63 560.289 58.11C560.895 57.5033 561.632 57.1566 562.499 57.07C563.365 56.8966 564.189 57.1133 564.969 57.72C566.095 58.6733 567.655 59.28 569.649 59.54C571.642 59.8 573.635 60.06 575.629 60.32C577.622 60.4933 579.399 60.84 580.959 61.36C582.605 61.7933 583.645 62.7033 584.079 64.09C587.285 63.1366 590.535 62.3133 593.829 61.62C597.122 60.84 600.112 60.1466 602.799 59.54C604.012 59.28 605.442 58.9766 607.089 58.63C608.735 58.1966 610.425 57.8066 612.159 57.46C613.892 57.1133 615.582 56.94 617.229 56.94C618.875 56.8533 620.349 56.9833 621.649 57.33C622.342 57.59 622.862 57.98 623.209 58.5C623.642 59.02 623.902 59.6266 623.989 60.32C624.162 60.9266 624.119 61.5333 623.859 62.14C623.685 62.7466 623.295 63.2666 622.689 63.7C621.822 64.3933 620.695 64.6966 619.309 64.61C618.009 64.5233 616.839 64.5666 615.799 64.74C610.079 65.4333 604.359 66.43 598.639 67.73C593.005 69.03 587.459 70.59 581.999 72.41C581.219 72.67 580.179 73.1033 578.879 73.71C577.665 74.4033 576.409 74.9666 575.109 75.4C573.895 75.8333 572.725 76.0066 571.599 75.92C570.472 75.92 569.605 75.4 568.999 74.36C568.565 73.4933 568.392 72.67 568.479 71.89C568.652 71.11 568.999 70.4166 569.519 69.81C570.125 69.1166 570.819 68.5533 571.599 68.12C572.379 67.6 573.202 67.21 574.069 66.95C573.115 66.7766 572.032 66.6466 570.819 66.56C569.605 66.3866 568.392 66.2133 567.179 66.04C565.965 65.78 564.795 65.4766 563.669 65.13C562.542 64.6966 561.632 64.09 560.939 63.31Z" fill="white"/>
</svg>
